<svg id="visual" viewBox="0 0 1920 1080" width="1920" height="1080" xmlns="http://www.w3.org/2000/svg" xmlns:xlink="http://www.w3.org/1999/xlink" version="1.1"><rect x="0" y="0" width="1920" height="1080" fill="#F6F6F6"></rect><path d="M0 88L45.7 97C91.3 106 182.7 124 274.2 135.7C365.7 147.3 457.3 152.7 548.8 157.7C640.3 162.7 731.7 167.3 823 158.7C914.3 150 1005.7 128 1097 128.8C1188.3 129.7 1279.7 153.3 1371.2 144.8C1462.7 136.3 1554.3 95.7 1645.8 83.3C1737.3 71 1828.7 87 1874.3 95L1920 103L1920 0L1874.3 0C1828.7 0 1737.3 0 1645.8 0C1554.3 0 1462.7 0 1371.2 0C1279.7 0 1188.3 0 1097 0C1005.7 0 914.3 0 823 0C731.7 0 640.3 0 548.8 0C457.3 0 365.7 0 274.2 0C182.7 0 91.3 0 45.7 0L0 0Z" fill="#5D13E7" stroke-linecap="round" stroke-linejoin="miter"></path></svg>